<svg version="1.1" xmlns="http://www.w3.org/2000/svg" xmlns:xlink="http://www.w3.org/1999/xlink" width="326.919921875" height="252"><defs/><g><g transform="translate(-102,-286) scale(1,1)"><rect fill="#C0C0C0" stroke="none" x="119" y="303" width="98.919921875" height="104" opacity="0.2"/></g><g transform="translate(-102,-286) scale(1,1)"><rect fill="#ffffff" stroke="none" x="112" y="296" width="98.919921875" height="104"/></g><g transform="translate(-102,-286) scale(1,1)"><path fill="none" stroke="#000000" d="M 112 296 L 210.919921875 296 L 210.919921875 400 L 112 400 L 112 296 Z Z" stroke-miterlimit="10"/></g><g transform="translate(-102,-286) scale(1,1)"><path fill="none" stroke="#000000" d="M 112 321 L 210.919921875 321" stroke-miterlimit="10"/></g><g transform="translate(-102,-286) scale(1,1)"><path fill="none" stroke="#000000" d="M 112 359 L 210.919921875 359" stroke-miterlimit="10"/></g><g transform="translate(-102,-286) scale(1,1)"><g><path fill="none" stroke="none"/><text fill="#000000" stroke="none" font-family="Arial" font-size="13px" font-style="normal" font-weight="bold" text-decoration="none" x="140.5" y="314">Class1</text></g></g><g transform="translate(-102,-286) scale(1,1)"><g><path fill="none" stroke="none"/><text fill="#000000" stroke="none" font-family="Arial" font-size="13px" font-style="normal" font-weight="normal" text-decoration="none" x="117" y="337">+Attribute1</text></g></g><g transform="translate(-102,-286) scale(1,1)"><g><path fill="none" stroke="none"/><text fill="#000000" stroke="none" font-family="Arial" font-size="13px" font-style="normal" font-weight="normal" text-decoration="none" x="117" y="352">+Attribute2</text></g></g><g transform="translate(-102,-286) scale(1,1)"><g><path fill="none" stroke="none"/><text fill="#000000" stroke="none" font-family="Arial" font-size="13px" font-style="normal" font-weight="normal" text-decoration="none" x="117" y="375">+Operation1()</text></g></g><g transform="translate(-102,-286) scale(1,1)"><rect fill="#C0C0C0" stroke="none" x="327" y="303" width="98.919921875" height="104" opacity="0.2"/></g><g transform="translate(-102,-286) scale(1,1)"><rect fill="#ffffff" stroke="none" x="320" y="296" width="98.919921875" height="104"/></g><g transform="translate(-102,-286) scale(1,1)"><path fill="none" stroke="#000000" d="M 320 296 L 418.919921875 296 L 418.919921875 400 L 320 400 L 320 296 Z Z" stroke-miterlimit="10"/></g><g transform="translate(-102,-286) scale(1,1)"><path fill="none" stroke="#000000" d="M 320 321 L 418.919921875 321" stroke-miterlimit="10"/></g><g transform="translate(-102,-286) scale(1,1)"><path fill="none" stroke="#000000" d="M 320 344 L 418.919921875 344" stroke-miterlimit="10"/></g><g transform="translate(-102,-286) scale(1,1)"><g><path fill="none" stroke="none"/><text fill="#000000" stroke="none" font-family="Arial" font-size="13px" font-style="normal" font-weight="bold" text-decoration="none" x="348.5" y="314">Class2</text></g></g><g transform="translate(-102,-286) scale(1,1)"><g><path fill="none" stroke="none"/><text fill="#000000" stroke="none" font-family="Arial" font-size="13px" font-style="normal" font-weight="normal" text-decoration="none" x="325" y="337">+Attribute1</text></g></g><g transform="translate(-102,-286) scale(1,1)"><g><path fill="none" stroke="none"/><text fill="#000000" stroke="none" font-family="Arial" font-size="13px" font-style="normal" font-weight="normal" text-decoration="none" x="325" y="360">+Operation1()</text></g></g><g transform="translate(-102,-286) scale(1,1)"><g><path fill="none" stroke="none"/><text fill="#000000" stroke="none" font-family="Arial" font-size="13px" font-style="normal" font-weight="normal" text-decoration="none" x="325" y="375">+Operation2()</text></g></g><g transform="translate(-102,-286) scale(1,1)"><path fill="none" stroke="#000000" d="M 212 348 L 319 348" stroke-miterlimit="10"/></g><g transform="translate(-102,-286) scale(1,1)"><rect fill="#C0C0C0" stroke="none" x="231" y="439" width="88" height="96" opacity="0.2"/></g><g transform="translate(-102,-286) scale(1,1)"><rect fill="#ffffff" stroke="none" x="224" y="432" width="88" height="96"/></g><g transform="translate(-102,-286) scale(1,1)"><path fill="none" stroke="#000000" d="M 224 432 L 312 432 L 312 528 L 224 528 L 224 432 Z Z" stroke-miterlimit="10"/></g><g transform="translate(-102,-286) scale(1,1)"><path fill="none" stroke="#000000" d="M 224 457 L 312 457" stroke-miterlimit="10"/></g><g transform="translate(-102,-286) scale(1,1)"><path fill="none" stroke="#000000" d="M 224 510 L 312 510" stroke-miterlimit="10"/></g><g transform="translate(-102,-286) scale(1,1)"><g><path fill="none" stroke="none"/><text fill="#000000" stroke="none" font-family="Arial" font-size="13px" font-style="normal" font-weight="bold" text-decoration="none" x="247.0400390625" y="450">Class3</text></g></g><g transform="translate(-102,-286) scale(1,1)"><g><path fill="none" stroke="none"/><text fill="#000000" stroke="none" font-family="Arial" font-size="13px" font-style="normal" font-weight="normal" text-decoration="none" x="229" y="473">+Attribute1</text></g></g><g transform="translate(-102,-286) scale(1,1)"><g><path fill="none" stroke="none"/><text fill="#000000" stroke="none" font-family="Arial" font-size="13px" font-style="normal" font-weight="normal" text-decoration="none" x="229" y="488">+Attribute2</text></g></g><g transform="translate(-102,-286) scale(1,1)"><g><path fill="none" stroke="none"/><text fill="#000000" stroke="none" font-family="Arial" font-size="13px" font-style="normal" font-weight="normal" text-decoration="none" x="229" y="503">+Attribute3</text></g></g><g transform="translate(-102,-286) scale(1,1)"><path fill="none" stroke="#000000" d="M 265 431 L 265 349" stroke-miterlimit="10" stroke-dasharray="3"/></g></g></svg>