<svg version="1.1" xmlns="http://www.w3.org/2000/svg" xmlns:xlink="http://www.w3.org/1999/xlink" width="252" height="124"><defs/><g><text fill="#eeeeee" stroke="none" font-family="Arial" font-size="24px" font-style="normal" font-weight="normal" text-decoration="none" x="0" y="0">UNREGISTERED</text><text fill="#eeeeee" stroke="none" font-family="Arial" font-size="24px" font-style="normal" font-weight="normal" text-decoration="none" x="0" y="30">UNREGISTERED</text><text fill="#eeeeee" stroke="none" font-family="Arial" font-size="24px" font-style="normal" font-weight="normal" text-decoration="none" x="0" y="60">UNREGISTERED</text><text fill="#eeeeee" stroke="none" font-family="Arial" font-size="24px" font-style="normal" font-weight="normal" text-decoration="none" x="0" y="90">UNREGISTERED</text><text fill="#eeeeee" stroke="none" font-family="Arial" font-size="24px" font-style="normal" font-weight="normal" text-decoration="none" x="0" y="120">UNREGISTERED</text><text fill="#eeeeee" stroke="none" font-family="Arial" font-size="24px" font-style="normal" font-weight="normal" text-decoration="none" x="200" y="0">UNREGISTERED</text><text fill="#eeeeee" stroke="none" font-family="Arial" font-size="24px" font-style="normal" font-weight="normal" text-decoration="none" x="200" y="30">UNREGISTERED</text><text fill="#eeeeee" stroke="none" font-family="Arial" font-size="24px" font-style="normal" font-weight="normal" text-decoration="none" x="200" y="60">UNREGISTERED</text><text fill="#eeeeee" stroke="none" font-family="Arial" font-size="24px" font-style="normal" font-weight="normal" text-decoration="none" x="200" y="90">UNREGISTERED</text><text fill="#eeeeee" stroke="none" font-family="Arial" font-size="24px" font-style="normal" font-weight="normal" text-decoration="none" x="200" y="120">UNREGISTERED</text><g transform="translate(-214,-326) scale(1,1)"><rect fill="#C0C0C0" stroke="none" x="231" y="343" width="80" height="104" opacity="0.2"/></g><g transform="translate(-214,-326) scale(1,1)"><rect fill="#ffffff" stroke="none" x="224" y="336" width="80" height="104"/></g><g transform="translate(-214,-326) scale(1,1)"><path fill="none" stroke="#000000" d="M 224 336 L 304 336 L 304 440 L 224 440 L 224 336 Z Z" stroke-miterlimit="10"/></g><g transform="translate(-214,-326) scale(1,1)"><path fill="none" stroke="#000000" d="M 224 361 L 304 361" stroke-miterlimit="10"/></g><g transform="translate(-214,-326) scale(1,1)"><path fill="none" stroke="#000000" d="M 224 371 L 304 371" stroke-miterlimit="10"/></g><g transform="translate(-214,-326) scale(1,1)"><g><path fill="none" stroke="none"/><text fill="#000000" stroke="none" font-family="Arial" font-size="13px" font-style="normal" font-weight="bold" text-decoration="none" x="243.0400390625" y="354">Class1</text></g></g><g transform="translate(-214,-326) scale(1,1)"><rect fill="#C0C0C0" stroke="none" x="383" y="343" width="80" height="104" opacity="0.2"/></g><g transform="translate(-214,-326) scale(1,1)"><rect fill="#ffffff" stroke="none" x="376" y="336" width="80" height="104"/></g><g transform="translate(-214,-326) scale(1,1)"><path fill="none" stroke="#000000" d="M 376 336 L 456 336 L 456 440 L 376 440 L 376 336 Z Z" stroke-miterlimit="10"/></g><g transform="translate(-214,-326) scale(1,1)"><path fill="none" stroke="#000000" d="M 376 361 L 456 361" stroke-miterlimit="10"/></g><g transform="translate(-214,-326) scale(1,1)"><path fill="none" stroke="#000000" d="M 376 371 L 456 371" stroke-miterlimit="10"/></g><g transform="translate(-214,-326) scale(1,1)"><g><path fill="none" stroke="none"/><text fill="#000000" stroke="none" font-family="Arial" font-size="13px" font-style="normal" font-weight="bold" text-decoration="none" x="395.0400390625" y="354">Class2</text></g></g><g transform="translate(-214,-326) scale(1,1)"><path fill="none" stroke="#000000" d="M 375 388 L 305 388" stroke-miterlimit="10"/></g><g transform="translate(-214,-326) scale(1,1)"><path fill="#000000" stroke="none" d="M 315.16267485762415 383.790482243984 L 305 388 L 315.16267485762415 392.209517756016 L 327 388"/></g><g transform="translate(-214,-326) scale(1,1)"><path fill="none" stroke="#000000" d="M 315.16267485762415 383.790482243984 L 305 388 L 315.16267485762415 392.209517756016 L 327 388 L 315.16267485762415 383.790482243984" stroke-miterlimit="10"/></g></g></svg>